<svg xmlns="http://www.w3.org/2000/svg" viewBox="0 0 3000 1200"><path fill="#e53238" d="M389 263C177 263 1 353 1 624c0 214 119 349 393 349 323 0 344-213 344-213H582s-34 115-197 115c-133 0-229-90-229-216h599v-79c0-125-80-317-366-317zm-6 101c127 0 213 78 213 194H159c0-123 113-194 224-194z"/><path fill="#0064d2" d="M754 1v836c0 47-3 114-3 114h149s6-48 6-91c0 0 74 115 274 115 212 0 355-147 355-357 0-196-132-353-354-353-209 0-274 113-274 113V1zm388 368c144 0 235 106 235 249 0 153-106 254-234 254-153 0-236-120-236-253 0-123 74-251 235-251z"/><path fill="#f5af02" d="M1907 263c-319 0-339 174-339 202h158s9-102 170-102c104 0 185 48 185 140v33h-185c-247 0-377 72-377 219 0 144 120 222 283 222 222 0 293-123 293-123 0 49 4 97 4 97h141s-6-60-6-98V524c0-216-174-261-328-261zm174 371v44c0 57-35 199-242 199-113 0-162-57-162-122 0-120 164-121 404-121z"/><path fill="#86b817" d="M2149 290h178l256 513 255-513h161l-465 912h-169l134-254z"/></svg>
