<svg xmlns="http://www.w3.org/2000/svg" viewBox="0 0 2560 2660"><path fill="#494949" d="M841.1 587.3l-33.3 22.2c-275 179.8-419.7 435.6-423 763.1-4.3 419 290.8 783.3 699.1 877 527 121 1048.7-261 1091-799.2 33.6-425.6-254.2-808-660.2-940.1-61.3-68.3-116.9-297.8-20.1-402.3 399 88.7 698.3 292.5 891.2 620.7 421.7 717.6 42.6 1653-758.6 1876.4C883 2812.6 130 2322 18.7 1557c-123.5-713.2 380-1347.7 1090.6-1454.3-165.8 150-254.5 355.8-268.3 484.6"/><path fill="#fb3239" d="M1795.8 1194.6c57.4-107 54.8-218.8 22.2-331.9-8-27.8-24.6-75.6-35.9-106.8 191.8 141.8 355.7 482.6 272.4 821.4-77.1 313.8-378 566.6-688.2 595.8-399.6 37.7-710.3-201.8-827.3-492.9-124.7-310.3-24.8-692 189.5-882-104.9 211-72.4 378.7-29.6 441.2 47.7 69.6 123.5 105.6 197.5 85 77.8-21.6 137.5-91.2 136.1-180-.9-59.2-11.4-126-34.8-179.5-138.7-316.7-23-602.4 200.6-799.2A1351.5 1351.5 0 011434.8 0c-105.6 150-123.5 332.6-43.3 502.5 47 92.6 107.3 189.4 160.5 278.7 95.5 160.6 154.1 325.8 128.8 517.4-.3 2 76-29.6 115-104"/></svg>
