<svg xmlns="http://www.w3.org/2000/svg" viewBox="0 0 442.4 270.9"><linearGradient id="a" x1="-.3" x2="1.3" gradientTransform="rotate(116.1 53.1 203) scale(86.48)" gradientUnits="userSpaceOnUse"><stop offset=".3" stop-color="#3e863d"/><stop offset=".5" stop-color="#55934f"/><stop offset=".8" stop-color="#5aad45"/></linearGradient><linearGradient id="b" x1="-.5" x2=".6" gradientTransform="rotate(-36.5 550.8 -214.3) scale(132.798)" gradientUnits="userSpaceOnUse"><stop offset=".6" stop-color="#3e863d"/><stop offset=".7" stop-color="#619857"/><stop offset="1" stop-color="#76ac64"/></linearGradient><linearGradient id="c" x2="1" gradientTransform="translate(192.9 279.6) scale(97.417)" gradientUnits="userSpaceOnUse"><stop offset=".2" stop-color="#6bbf47"/><stop offset=".4" stop-color="#79b461"/><stop offset=".5" stop-color="#75ac64"/><stop offset=".7" stop-color="#659e5a"/><stop offset=".9" stop-color="#3e863d"/></linearGradient><path fill="#689f63" d="M218.7 271a8.4 8.4 0 01-4.2-1.2L201 262c-2-1.1-1-1.5-.3-1.7a27 27 0 006-2.8c.3-.1.7 0 1 .1l10.2 6c.4.3 1 .3 1.3 0l40-23c.3-.2.5-.6.5-1v-46.2c0-.4-.2-.8-.6-1l-40-23.1a1.2 1.2 0 00-1.2 0l-39.9 23c-.4.3-.6.7-.6 1.1v46.1c0 .5.2.9.6 1.1l11 6.3c5.9 3 9.5-.5 9.5-4v-45.5c0-.7.5-1.2 1.2-1.2h5c.7 0 1.2.5 1.2 1.2v45.5c0 8-4.3 12.5-11.8 12.5-2.3 0-4.2 0-9.2-2.5l-10.5-6a8.4 8.4 0 01-4.2-7.4v-46c0-3 1.6-5.9 4.2-7.4l40-23a8.8 8.8 0 018.3 0l40 23a8.4 8.4 0 014.2 7.3v46.1a8.4 8.4 0 01-4.2 7.3l-40 23a8.4 8.4 0 01-4.2 1.2m12.5-31.8c-17.5 0-21.2-8-21.2-14.8 0-.6.6-1.1 1.2-1.1h5.2c.5 0 1 .4 1.1 1 .8 5.2 3.1 7.8 13.7 7.8 8.4 0 12-1.9 12-6.3 0-2.6-1-4.5-14.1-5.8-11-1-17.7-3.5-17.7-12.2 0-8 6.8-12.9 18.2-12.9 12.7 0 19 4.5 19.9 14a1.2 1.2 0 01-1.2 1.3H243a1 1 0 01-1-1c-1.3-5.5-4.4-7.2-12.6-7.2-9.2 0-10.2 3.2-10.2 5.6 0 2.9 1.2 3.7 13.6 5.4 12.3 1.6 18.1 3.9 18.1 12.5 0 8.7-7.2 13.7-19.9 13.7m48.7-48.9h1.3c1.1 0 1.3-.8 1.3-1.2 0-1.2-.8-1.2-1.2-1.2h-1.4zm-1.6-3.8h3c1 0 3 0 3 2.3 0 1.6-1 2-1.7 2.1 1.2.1 1.3.9 1.5 2 0 .7.2 1.9.4 2.3h-1.8l-.4-2.7c0-.5-.3-.8-.9-.8h-1.5v3.5H278zm-3.6 4.3a6.5 6.5 0 006.4 6.5 6.5 6.5 0 10-6.4-6.5m14.1 0c0 4.3-3.4 7.8-7.7 7.8a7.7 7.7 0 01-7.7-7.7 7.7 7.7 0 1115.4 0m105.9-85.7a1 1 0 011 0l8.2 4.7c.3.2.4.5.4.8v9.4c0 .4-.1.7-.5.9l-8 4.7a1 1 0 01-1 0l-8.2-4.7a1 1 0 01-.5-.9v-9.4c0-.3.2-.6.5-.8z"/><path fill="#333" d="M95 90.5a5 5 0 00-2.6-4.4L50 61.7a5 5 0 00-2.3-.6h-.4a5 5 0 00-2.4.6L2.6 86.1A5.2 5.2 0 000 90.6l.1 65.6c0 .9.5 1.8 1.3 2.2.7.5 1.7.5 2.5 0L29.1 144a5.2 5.2 0 002.5-4.5V109a5.1 5.1 0 012.6-4.5l10.7-6.1a5 5 0 015.1 0l10.7 6.1a5.1 5.1 0 012.6 4.5v30.6c0 1.9 1 3.5 2.6 4.5L91 158.4a2.5 2.5 0 002.6 0 2.6 2.6 0 001.3-2.2zm199.8 34.2c0 .5-.2 1-.6 1.1l-14.6 8.4c-.4.2-.9.2-1.3 0l-14.5-8.4c-.4-.2-.6-.6-.6-1v-16.9c0-.4.2-.9.6-1l14.5-8.5c.4-.2 1-.2 1.3 0l14.6 8.4c.4.2.6.7.6 1.1zm4-124.4a2.6 2.6 0 00-3.9 2.3v65a1.8 1.8 0 01-2.7 1.5L281.6 63a5.1 5.1 0 00-5 0L234 87.4a5.1 5.1 0 00-2.5 4.5v48.9c0 1.8 1 3.5 2.5 4.4l42.4 24.5c1.6.9 3.5.9 5.1 0l42.4-24.5a5.1 5.1 0 002.6-4.4v-122a5.1 5.1 0 00-2.7-4.4zm141 107.2a5.1 5.1 0 002.6-4.4V91.2a5 5 0 00-2.6-4.4l-42-24.5a5.1 5.1 0 00-5.2 0l-42.4 24.5a5.1 5.1 0 00-2.5 4.4v49a5 5 0 002.6 4.4l42 24a5.1 5.1 0 005 0l25.5-14.1a2.6 2.6 0 000-4.5l-42.6-24.5a2.5 2.5 0 01-1.3-2.2V108c0-1 .5-1.8 1.3-2.2l13.3-7.7a2.5 2.5 0 012.5 0l13.3 7.7c.8.4 1.3 1.3 1.3 2.2v12c0 1 .5 1.8 1.2 2.3a3 3 0 002.6 0z"/><path fill="url(#a)" d="M239 226.6l-42 24.3a5 5 0 00-2.5 4.4V304a5 5 0 002.5 4.4l42.1 24.3c1.6 1 3.6 1 5.1 0l42.1-24.3a5.1 5.1 0 002.6-4.4v-48.7a5 5 0 00-2.6-4.4l-42-24.3a5.1 5.1 0 00-5.2 0" transform="translate(-78.3 -164)"/><path fill="url(#b)" d="M195.4 307a5 5 0 001.5 1.4l36.1 20.9 6 3.4a5.1 5.1 0 004 .5l44.4-81.3a5 5 0 00-1.2-1l-27.5-16-14.6-8.3a5.3 5.3 0 00-1.3-.5z" transform="translate(-78.3 -164)"/><path fill="url(#c)" d="M241 226c-.6 0-1.3.2-2 .6l-42 24.2 45.3 82.6a4 4 0 001.8-.7l42.2-24.3a5.1 5.1 0 002.4-3.5L242.5 226a5.3 5.3 0 00-1.4 0" transform="translate(-78.3 -164)"/></svg>